<svg width="50" height="72" viewBox="0 0 50 72" fill="none" xmlns="http://www.w3.org/2000/svg">
<path d="M50 15.5829C50 18.8966 47.3137 21.5829 44 21.5829C40.6863 21.5829 38 18.8966 38 15.5829C38 12.2692 40.6863 9.58289 44 9.58289C47.3137 9.58289 50 12.2692 50 15.5829Z" fill="black"/>
<path d="M31 9.12604C31 12.4397 28.3137 15.126 25 15.126C21.6863 15.126 19 12.4397 19 9.12604C19 5.81233 21.6863 3.12604 25 3.12604C28.3137 3.12604 31 5.81233 31 9.12604Z" fill="black"/>
<path d="M12 27.5829C12 30.8966 9.31371 33.5829 6 33.5829C2.68629 33.5829 3.93958e-08 30.8966 4.24872e-08 27.5829C4.55785e-08 24.2692 2.68629 21.5829 6 21.5829C9.31371 21.5829 12 24.2692 12 27.5829Z" fill="black"/>
<path d="M25 46.5C25 49.8137 22.3137 52.5 19 52.5C15.6863 52.5 13 49.8137 13 46.5C13 43.1863 15.6863 40.5 19 40.5C22.3137 40.5 25 43.1863 25 46.5Z" fill="black"/>
<path d="M50 40.5C50 43.8137 47.3137 46.5 44 46.5C40.6863 46.5 38 43.8137 38 40.5C38 37.1863 40.6863 34.5 44 34.5C47.3137 34.5 50 37.1863 50 40.5Z" fill="black"/>
<path d="M43.811 65C43.811 68.3137 41.1247 71 37.811 71C34.4973 71 31.811 68.3137 31.811 65C31.811 61.6863 34.4973 59 37.811 59C41.1247 59 43.811 61.6863 43.811 65Z" fill="black"/>
<path d="M19 66C19 69.3137 16.3137 72 13 72C9.68629 72 7 69.3137 7 66C7 62.6863 9.68629 60 13 60C16.3137 60 19 62.6863 19 66Z" fill="black"/>
<path d="M44 13C37.762 7.17133 33.2676 6.28572 24.5 6.5C13.8714 8.09224 9.64474 11.8527 6 25C7.66537 35.9129 10.378 40.4106 19 45C29.1568 47.6567 34.6793 46.8762 44 38.5M44 13L44 38.5M44 13L44 2M44 38.5C45.1759 51.2078 44.0581 56.8302 37.5 63C27.6685 67.5101 22.3228 67.1802 13 63L4 57" stroke="black" stroke-width="4" stroke-linecap="square"/>
</svg>
